<svg xmlns="http://www.w3.org/2000/svg" width="256" height="256"><path fill-opacity=".016" d="M0 128.004v128.004l128.25-.254 128.25-.254.254-127.75L257.008 0H0v128.004m.485.496c0 70.4.119 99.053.265 63.672.146-35.38.146-92.98 0-128C.604 29.153.485 58.1.485 128.5" fill="#1C8B6A" fill-rule="evenodd"/><path fill-opacity=".231" d="M39.041.72C24.512 3.519 9.368 16.608 2.826 32.021L.5 37.5v181l2.326 5.479c5.496 12.949 16.246 23.699 29.195 29.195L37.5 255.5h181l5.479-2.326c13.706-5.818 25.5-18.151 29.434-30.78 1.01-3.242 2.23-6.675 2.711-7.63 1.265-2.509 1.142-175.047-.124-174.264-.55.34-1-.292-1-1.404 0-3.581-4.03-12.385-8.605-18.796-4.929-6.907-13.785-13.811-22.416-17.474L218.5.5 130 .373C81.325.303 40.394.46 39.041.72m131.906 28.36c-18.605 8.986-34.39 22.229-39.449 33.095-2.45 5.263-2.479 5.647-2.488 33.075L129 123h-7v-19.05c0-20.475-.281-21.857-5.784-28.447-3.914-4.688-12.331-10.82-21.146-15.406L87 55.899v19.59c0 17.917.179 19.942 2.096 23.699 3.076 6.03 10.729 12.854 20.648 18.412l8.744 4.9-9.494.5-9.494.5v17l3.25.313 3.25.314v6.148c0 5.955-.248 6.542-7.928 18.731-10.295 16.34-10.626 17.09-8.923 20.191.743 1.353 8.101 11.933 16.351 23.513l15 21.053.269-23.062c.171-14.69-.101-23.433-.75-24.082-2.943-2.943.288-9.619 4.655-9.619 4.013 0 7.119 6.807 4.363 9.563-.545.545-1.088 11.047-1.25 24.174-.267 21.556-.17 23.088 1.356 21.487C132.301 225.91 161 184.762 161 183.548c0-.674-4.05-7.695-9-15.603-8.828-14.103-9-14.497-9-20.598v-6.22l3.25-.314 3.25-.313v-17l-8.5-.5-8.5-.5 8.5-4.352c19.263-9.863 31.948-20.632 37.08-31.479l2.918-6.169.001-27.75c.001-15.263-.36-27.75-.802-27.75-.441 0-4.604 1.836-9.25 4.08M.478 128c0 48.125.123 67.813.272 43.75.149-24.062.149-63.437 0-87.5C.601 60.188.478 79.875.478 128" fill="#1C8B6A" fill-rule="evenodd"/><path fill-opacity=".072" d="M38.348 1.42C20.199 5.822 4.904 21.584 1.105 39.799c-1.542 7.394-1.542 169.008 0 176.402 3.908 18.74 19.954 34.786 38.694 38.694 7.394 1.542 169.008 1.542 176.402 0 18.287-3.814 35.701-20.925 38.387-37.719.371-2.321 1.066-4.462 1.543-4.757.481-.297.869-38.518.869-85.537 0-48.324-.378-84.767-.875-84.459-.481.297-1.176-1.34-1.544-3.639-2.679-16.754-20.114-33.87-38.38-37.679C208.245-.554 45.296-.266 38.348 1.42M169.97 29.299c-19.925 10.009-33.059 20.984-38.539 32.201l-2.931 6-.321 27.75-.32 27.75H123l-.024-16.75c-.027-18.993-.673-22.935-4.699-28.664-4.936-7.023-21.154-18.374-30.103-21.069l-2.326-.7.326 19.841c.321 19.544.367 19.912 3.06 24.493 3.537 6.017 10.287 11.93 20.223 17.716l7.958 4.633-8.925.292c-5.59.183-9.211.743-9.692 1.5-.981 1.544-1.005 13.835-.029 15.368.405.638 2.086 1.313 3.734 1.5 2.883.327 3.008.55 3.289 5.842.286 5.379.092 5.824-8.724 20-4.96 7.974-9.029 15.417-9.043 16.541-.025 2.056 31.057 46.651 32.957 47.284.671.224 1.007-7.434.986-22.494-.026-18.492-.311-23.202-1.5-24.774-3.595-4.753.812-11.119 6.045-8.735 3.165 1.442 4.268 5.656 2.106 8.045-1.394 1.54-1.619 5.019-1.619 25.043 0 14.383.365 23.128.958 22.921 1.743-.607 33.01-45.296 33.026-47.204.009-1.03-4.056-8.371-9.032-16.314-8.94-14.269-9.044-14.51-8.75-20.128.288-5.496.398-5.698 3.295-6.027 1.648-.187 3.329-.862 3.734-1.5 1.296-2.037.879-14.324-.526-15.49-.712-.591-4.649-1.208-8.75-1.372l-7.455-.298 9.415-4.936C160.917 108.125 173.722 96.89 178.89 86c2.585-5.446 2.613-5.767 2.945-32.865.184-15.051-.055-27.755-.531-28.231-.486-.486-5.444 1.436-11.334 4.395M.478 128c0 47.025.122 66.263.272 42.75.149-23.512.149-61.987 0-85.5C.6 61.738.478 80.975.478 128" fill="#1C8B6A" fill-rule="evenodd"/><path fill-opacity=".38" d="M41.067 1.135C21.573 4.369 4.289 22.026 1.064 42c-1.431 8.866-1.431 163.134 0 172 3.341 20.695 20.591 37.756 41.446 40.992 4.727.733 33.884.992 89.992.796l82.998-.288 6.879-2.673c13.708-5.326 23.013-13.937 28.836-26.688 1.598-3.498 3.168-8.574 3.488-11.279.32-2.705.968-5.157 1.44-5.448.471-.292.857-37.43.857-82.53 0-45.785-.381-81.764-.864-81.466-.475.293-1.132-1.733-1.46-4.504-.927-7.824-6.894-19.13-13.676-25.912-6.982-6.982-17.476-12.398-27-13.936-8.075-1.303-165.035-1.239-172.933.071m127.387 28.65c-19.107 9.886-32.226 21.017-37.575 31.883-2.305 4.682-2.389 5.693-2.687 32.582l-.308 27.75H123v-18.184c0-21.709-.587-23.511-10.661-32.743C106.568 65.786 90.177 56 87.091 56c-1.859 0-1.454 37.191.455 41.782 2.779 6.681 12.71 15.63 23.946 21.576l4.992 2.642h-8.042c-4.922 0-8.508.466-9.242 1.2-1.603 1.603-1.603 15.997 0 17.6.66.66 2.235 1.2 3.5 1.2 2.143 0 2.3.407 2.3 5.973 0 5.777-.279 6.413-8.5 19.384-5.142 8.112-8.5 14.455-8.5 16.054 0 1.805 4.918 9.577 15.5 24.494 8.526 12.018 16.176 22.411 17 23.095 1.326 1.101 1.496-1.521 1.468-22.628-.026-19.405-.306-24.235-1.5-25.813-1.881-2.488-1.855-4.029.103-5.988 2.381-2.38 6.138-1.945 8.021.929 1.509 2.304 1.511 2.693.023 4.965-1.371 2.093-1.615 6.024-1.615 26.059 0 15.783.338 23.385 1.02 22.964 2.608-1.612 32.98-45.79 32.98-47.971 0-1.312-3.825-8.48-8.5-15.931-8.225-13.108-8.5-13.74-8.5-19.566 0-5.615.155-6.02 2.3-6.02 3.838 0 4.7-1.864 4.7-10.165 0-9.175-.65-9.835-9.684-9.835H135.5l9.785-5.406c17.265-9.539 28.53-19.489 33.506-29.594l2.709-5.5.306-28.75c.247-23.164.053-28.743-1-28.715-.718.02-6.276 2.607-12.352 5.75M.477 128c0 45.375.123 63.938.273 41.25.15-22.687.15-59.812 0-82.5C.6 64.063.477 82.625.477 128" fill="#1C8B6A" fill-rule="evenodd"/></svg>