<svg width="161" height="147" viewBox="0 0 161 147" fill="none" xmlns="http://www.w3.org/2000/svg">
<path d="M60.6763 17.3522C71.6832 -1.78407 89.5568 -1.78407 100.564 17.3522C100.564 17.3522 119.809 50.8582 126.952 63.2306C134.096 75.603 153.49 109.023 153.49 109.023C164.559 128.123 155.622 143.602 133.546 143.567C133.546 143.567 94.9064 143.481 80.62 143.481C66.3336 143.481 27.6939 143.567 27.6939 143.567C5.61788 143.602 -3.31889 128.123 7.75014 109.023C7.75014 109.023 27.1445 75.603 34.2877 63.2306C41.4309 50.8582 60.6763 17.3522 60.6763 17.3522Z" fill="#FFB800"/>
<path d="M60.6763 17.3522C71.6832 -1.78407 89.5568 -1.78407 100.564 17.3522C100.564 17.3522 119.809 50.8582 126.952 63.2306C134.096 75.603 153.49 109.023 153.49 109.023C164.559 128.123 155.622 143.602 133.546 143.567C133.546 143.567 94.9064 143.481 80.62 143.481C66.3336 143.481 27.6939 143.567 27.6939 143.567C5.61788 143.602 -3.31889 128.123 7.75014 109.023C7.75014 109.023 27.1445 75.603 34.2877 63.2306C41.4309 50.8582 60.6763 17.3522 60.6763 17.3522Z" stroke="#FFB800" stroke-width="5"/>
<path d="M80.6204 115.047C82.828 115.047 84.6567 114.306 86.1056 112.821C87.5545 111.338 88.279 109.494 88.279 107.285C88.279 105.077 87.5545 103.233 86.1056 101.748C84.6567 100.265 82.828 99.5229 80.6204 99.5229C78.411 99.5229 76.5841 100.265 75.1352 101.748C73.6863 103.233 72.9619 105.077 72.9619 107.285C72.9619 109.494 73.6863 111.338 75.1352 112.821C76.5841 114.306 78.411 115.047 80.6204 115.047ZM80.6204 93.3132C81.6554 93.3132 82.5355 92.9685 83.26 92.2783C83.9844 91.5898 84.4137 90.5882 84.5532 89.277L88.3825 49.1213L88.486 47.9829C88.486 45.8455 87.7435 44.1374 86.2604 42.8595C84.7755 41.5834 82.8973 40.9453 80.6204 40.9453C78.3435 40.9453 76.4636 41.5834 74.9804 42.8595C73.4955 44.1374 72.7549 45.8455 72.7549 47.9829L72.8584 49.0178L76.6876 89.277C76.8253 90.5882 77.2564 91.5898 77.9809 92.2783C78.7053 92.9685 79.5855 93.3132 80.6204 93.3132Z" fill="white"/>
</svg>
