<svg width="20" height="20" viewBox="0 0 20 20" fill="none" xmlns="http://www.w3.org/2000/svg">
<rect width="20" height="20" rx="5" fill="#1C8B6A"/>
<path d="M11.0612 9.99629L13.1043 7.94557C13.2467 7.8026 13.3248 7.61312 13.3248 7.41244C13.3248 7.21176 13.2467 7.02228 13.1043 6.87931C12.8203 6.59508 12.3269 6.59508 12.0429 6.87931L9.9998 8.93088L7.95589 6.87931C7.67188 6.59508 7.17849 6.59508 6.89447 6.87931C6.75289 7.02228 6.6748 7.21176 6.6748 7.41244C6.6748 7.61312 6.75289 7.8026 6.89447 7.94557L8.93752 9.99629L6.89447 12.047C6.75289 12.19 6.6748 12.3795 6.6748 12.5801C6.6748 12.7808 6.75289 12.9703 6.89447 13.1133C7.17849 13.3975 7.67188 13.3975 7.95589 13.1133L9.9998 11.0617L12.0429 13.1133C12.1853 13.2554 12.3732 13.3338 12.574 13.3338C12.7748 13.3338 12.9627 13.2554 13.1043 13.1133C13.2467 12.9703 13.3248 12.7808 13.3248 12.5801C13.3248 12.3795 13.2467 12.19 13.1043 12.047L11.0612 9.99629Z" fill="white"/>
</svg>
