<svg width="26" height="26" viewBox="0 0 26 26" fill="none" xmlns="http://www.w3.org/2000/svg">
<path fill-rule="evenodd" clip-rule="evenodd" d="M14.3582 2.99036C19.2703 2.99036 23.2524 6.97245 23.2524 11.8846C23.2524 16.7968 19.2703 20.7789 14.3582 20.7789C11.955 20.7789 9.77444 19.8258 8.17385 18.277C8.14491 18.238 8.11276 18.2007 8.07741 18.1653C8.04206 18.13 8.00473 18.0978 7.96577 18.0689C6.41699 16.4683 5.46392 14.2878 5.46392 11.8846C5.46392 6.97245 9.44601 2.99036 14.3582 2.99036ZM5.97996 18.8486C4.40886 16.9605 3.46392 14.5329 3.46392 11.8846C3.46392 5.86788 8.34145 0.990356 14.3582 0.990356C20.3749 0.990356 25.2524 5.86788 25.2524 11.8846C25.2524 17.9014 20.3749 22.7789 14.3582 22.7789C11.7099 22.7789 9.28227 21.8339 7.39417 20.2628L2.6974 24.9595C2.30688 25.3501 1.67371 25.3501 1.28319 24.9595C0.892666 24.569 0.892666 23.9359 1.28319 23.5453L5.97996 18.8486ZM19.0684 11.8846C19.0684 12.4369 18.6207 12.8846 18.0684 12.8846H15.3584V15.5949C15.3584 16.1472 14.9107 16.5949 14.3584 16.5949C13.8061 16.5949 13.3584 16.1472 13.3584 15.5949V12.8846H10.6477C10.0954 12.8846 9.64768 12.4369 9.64768 11.8846C9.64768 11.3323 10.0954 10.8846 10.6477 10.8846H13.3584V8.17425C13.3584 7.62197 13.8061 7.17425 14.3584 7.17425C14.9107 7.17425 15.3584 7.62197 15.3584 8.17425V10.8846H18.0684C18.6207 10.8846 19.0684 11.3323 19.0684 11.8846Z" fill="#1C8B6A"/>
</svg>
