<svg width="26" height="26" viewBox="0 0 26 26" fill="none" xmlns="http://www.w3.org/2000/svg">
<path fill-rule="evenodd" clip-rule="evenodd" d="M11.883 2.98853C6.97086 2.98853 2.98877 6.97062 2.98877 11.8828C2.98877 16.7949 6.97086 20.777 11.883 20.777C14.2861 20.777 16.4666 19.824 18.0672 18.2753C18.0962 18.2363 18.1283 18.1989 18.1637 18.1635C18.1991 18.1281 18.2365 18.0959 18.2755 18.067C19.8242 16.4664 20.7773 14.2859 20.7773 11.8828C20.7773 6.97062 16.7952 2.98853 11.883 2.98853ZM11.883 22.777C14.5313 22.777 16.9589 21.8321 18.847 20.261L23.5437 24.9577C23.9343 25.3482 24.5674 25.3482 24.9579 24.9577C25.3485 24.5672 25.3485 23.934 24.9579 23.5435L20.2612 18.8468C21.8323 16.9587 22.7773 14.5311 22.7773 11.8828C22.7773 5.86605 17.8998 0.988525 11.883 0.988525C5.86629 0.988525 0.98877 5.86605 0.98877 11.8828C0.98877 17.8995 5.86629 22.777 11.883 22.777ZM8.17267 10.8825C7.62038 10.8825 7.17267 11.3302 7.17267 11.8825C7.17267 12.4348 7.62038 12.8825 8.17267 12.8825H15.5934C16.1456 12.8825 16.5934 12.4348 16.5934 11.8825C16.5934 11.3302 16.1456 10.8825 15.5934 10.8825H8.17267Z" fill="#1C8B6A"/>
</svg>
